<?xml version="1.0" encoding="UTF-8"?>
<svg version="1.1" xmlns="http://www.w3.org/2000/svg" width="683" height="158">
<path d="M0 0 C0.73393982 -0.0065712 1.46787964 -0.0131424 2.22406006 -0.01991272 C4.64929317 -0.03959495 7.07446433 -0.05130012 9.49975586 -0.0612793 C10.74791989 -0.06739259 10.74791989 -0.06739259 12.02129936 -0.07362938 C16.43004989 -0.09447361 20.83876949 -0.10877957 25.24755859 -0.11816406 C29.77767685 -0.12919437 34.3072993 -0.16355955 38.83724308 -0.20333576 C42.34023381 -0.22962238 45.84310885 -0.23786676 49.3461895 -0.24144554 C51.01457485 -0.24628446 52.68295599 -0.25782056 54.35124397 -0.27648354 C67.86730472 -0.41822687 78.37737706 0.94416071 88.48413086 10.6652832 C94.67709885 17.84019927 96.77767658 25.2976378 96.87670898 34.5690918 C96.88809906 35.30796631 96.89948914 36.04684082 96.91122437 36.80810547 C97.02206579 44.54985227 97.06934448 52.29253911 97.11206055 60.03491211 C97.13425311 63.69555094 97.17590226 67.35515701 97.23510742 71.01538086 C97.30676084 75.45515183 97.34297538 79.89395867 97.35517883 84.33427811 C97.36548798 86.01422496 97.38769029 87.69414814 97.42277527 89.37376022 C97.65550329 101.13057165 95.93379206 109.0847708 89.65209961 119.17700195 C88.99209961 119.17700195 88.33209961 119.17700195 87.65209961 119.17700195 C87.65209961 119.83700195 87.65209961 120.49700195 87.65209961 121.17700195 C85.67553711 122.83325195 85.67553711 122.83325195 83.02709961 124.67700195 C82.16858398 125.28543945 81.31006836 125.89387695 80.42553711 126.52075195 C74.99211581 129.76549932 69.96264968 130.47981981 63.72583008 130.49926758 C62.56837029 130.51416229 62.56837029 130.51416229 61.38752747 130.52935791 C58.84807691 130.55843769 56.30887646 130.57217957 53.76928711 130.58325195 C52.45955114 130.59173409 52.45955114 130.59173409 51.12335587 130.60038757 C46.49946139 130.630312 41.87569066 130.64880636 37.25170898 130.6574707 C32.50399003 130.66841085 27.75742675 130.71641794 23.01006889 130.77341461 C19.33459301 130.81089642 15.6593887 130.82109069 11.98373795 130.82414246 C10.23520743 130.83014869 8.48667898 130.8460456 6.73833847 130.87251282 C-5.89904798 131.05011704 -15.5319553 129.60907622 -25.34790039 120.80200195 C-31.29594078 114.27366494 -33.48792318 107.18639373 -33.55664062 98.49951172 C-33.56642441 97.71855637 -33.57620819 96.93760101 -33.58628845 96.13298035 C-33.6162297 93.54480683 -33.637633 90.95668536 -33.65649414 88.3684082 C-33.66306597 87.48146711 -33.66963779 86.59452602 -33.67640877 85.68070793 C-33.70900844 80.97904938 -33.73344905 76.27741342 -33.75292969 71.57568359 C-33.77068453 67.70066887 -33.80540934 63.82638985 -33.85546875 59.95166016 C-33.91600115 55.26021746 -33.94645151 50.56945245 -33.95610237 45.87763786 C-33.9646081 44.09838921 -33.98330411 42.31915624 -34.01284599 40.54013252 C-34.19590324 28.88152074 -33.61212355 19.08321943 -25.33763123 9.96070862 C-17.95124362 2.89526595 -10.06059843 0.03930008 0 0 Z " fill="#E1E4E9" transform="translate(47.347900390625,13.822998046875)"/>
<path d="M0 0 C3.77880266 2.51505152 7.11607949 5.42312515 10.37109375 8.578125 C13.22870283 7.27356434 15.33433326 5.84557537 17.62109375 3.703125 C24.48971156 -2.20910299 30.05443602 -4.19259254 39.25390625 -3.86328125 C46.65094267 -2.81583123 51.37615233 1.92943838 55.9609375 7.55859375 C60.53656554 14.1115015 59.57790808 21.93748431 59.37109375 29.578125 C58.95859375 29.20300781 58.54609375 28.82789063 58.12109375 28.44140625 C46.39951546 18.05420406 35.20294155 14.73211278 19.62890625 15.23046875 C11.59540567 15.72220782 5.71190974 18.7381724 -0.25390625 24.015625 C-1.77999711 25.74981915 -2.68712705 27.47723293 -3.62890625 29.578125 C1.26527039 28.37418073 1.26527039 28.37418073 5.62109375 25.953125 C9.94736847 23.78998764 14.61616093 23.98854396 19.37109375 24.578125 C20.03109375 25.238125 20.69109375 25.898125 21.37109375 26.578125 C19.99609375 28.078125 19.99609375 28.078125 18.37109375 29.578125 C17.71109375 29.578125 17.05109375 29.578125 16.37109375 29.578125 C16.70109375 30.238125 17.03109375 30.898125 17.37109375 31.578125 C22.16568894 31.03689694 22.16568894 31.03689694 26.7265625 29.5625 C34.70406973 26.59302907 43.35835159 28.39868785 51.03125 31.41015625 C53.38234701 32.58374224 55.32885774 33.93207334 57.37109375 35.578125 C54.5854936 48.94900572 43.70559756 59.73503036 32.99609375 67.453125 C15.77023707 78.7248715 15.77023707 78.7248715 7.37109375 77.578125 C4.28226536 76.30191561 1.40408874 74.71941709 -1.50390625 73.078125 C-2.67953125 72.43423828 -2.67953125 72.43423828 -3.87890625 71.77734375 C-5.80203595 70.72196769 -7.71803877 69.65549513 -9.62890625 68.578125 C-9.62890625 67.918125 -9.62890625 67.258125 -9.62890625 66.578125 C-8.26958984 66.52205078 -8.26958984 66.52205078 -6.8828125 66.46484375 C4.2082232 65.86627992 13.87590765 64.66738528 21.68359375 56.015625 C23.51484375 53.61354167 23.51484375 53.61354167 24.37109375 50.578125 C23.33984375 51.01125 22.30859375 51.444375 21.24609375 51.890625 C20.59898438 52.16132812 19.951875 52.43203125 19.28515625 52.7109375 C17.17977808 53.6168704 17.17977808 53.6168704 14.62109375 55.265625 C9.89676859 57.17352555 5.40241767 56.81984341 0.37109375 56.578125 C0.37109375 55.588125 0.37109375 54.598125 0.37109375 53.578125 C1.36109375 52.918125 2.35109375 52.258125 3.37109375 51.578125 C3.37109375 50.918125 3.37109375 50.258125 3.37109375 49.578125 C-1.35985457 50.08949815 -1.35985457 50.08949815 -5.8359375 51.5859375 C-9.63252788 52.93465632 -13.12705347 53.0228317 -17.12890625 53.078125 C-17.87527344 53.119375 -18.62164062 53.160625 -19.390625 53.203125 C-24.739672 53.27886372 -24.739672 53.27886372 -27.19873047 51.34106445 C-30.47575827 47.50341319 -32.64581045 43.17144945 -34.62890625 38.578125 C-34.93054687 37.90007812 -35.2321875 37.22203125 -35.54296875 36.5234375 C-38.62306433 28.66487587 -39.22763979 19.60734196 -36.00390625 11.703125 C-32.8919722 5.72117404 -28.8186057 0.5100879 -22.62890625 -2.421875 C-14.61160846 -4.82021194 -7.27000318 -4.04793777 0 0 Z " fill="#49C684" transform="translate(67.62890625,42.421875)"/>
<path d="M0 0 C2.07448643 1.43618291 3.79876818 2.77564621 5.4375 4.6875 C7.39843574 3.73283391 9.3038967 2.77069842 11.15625 1.6171875 C17.06356109 -1.88056249 22.69652293 -2.20161945 29.4375 -1.3125 C35.28988572 0.4036856 39.08509397 3.56029077 42.4375 8.6875 C44.17795103 14.37524845 44.71471786 19.42323112 44.6328125 25.34375 C44.6299826 26.13148804 44.62715271 26.91922607 44.62423706 27.73083496 C44.61315169 30.21655264 44.5880701 32.7018935 44.5625 35.1875 C44.5524551 36.88541142 44.54333191 38.58332855 44.53515625 40.28125 C44.51325071 44.41680914 44.47880326 48.55209096 44.4375 52.6875 C39.8175 52.6875 35.1975 52.6875 30.4375 52.6875 C30.43339111 51.62313721 30.42928223 50.55877441 30.42504883 49.4621582 C30.40322552 45.50138366 30.34890394 41.54159805 30.28491211 37.58129883 C30.26175975 35.86948141 30.24734285 34.1575221 30.24194336 32.44555664 C30.23263297 29.97973502 30.19160221 27.51613626 30.14453125 25.05078125 C30.1484639 24.28913162 30.15239655 23.52748199 30.15644836 22.74275208 C30.0462648 18.70200063 29.59861466 16.88636497 27.0222168 13.70629883 C23.7987766 11.18862366 22.30637066 10.94591639 18.37109375 11.19140625 C15.05515277 12.04216283 13.46310328 14.04807754 11.4375 16.6875 C10.25748451 20.22754646 10.20837654 23.5102256 10.12109375 27.19921875 C10.10031265 27.92744339 10.07953156 28.65566803 10.05812073 29.40596008 C9.99281254 31.72887875 9.93382763 34.05190906 9.875 36.375 C9.83179695 37.95118335 9.78818208 39.52735548 9.74414062 41.10351562 C9.6371504 44.96472975 9.53583039 48.82605603 9.4375 52.6875 C5.1475 52.6875 0.8575 52.6875 -3.5625 52.6875 C-3.57708252 51.65343018 -3.59166504 50.61936035 -3.60668945 49.55395508 C-3.66480882 45.70513918 -3.74204023 41.85690001 -3.82495117 38.00854492 C-3.85813655 36.34522892 -3.88618834 34.68180204 -3.90893555 33.01831055 C-3.94259999 30.62240501 -3.9949194 28.22750965 -4.05078125 25.83203125 C-4.05717117 25.0922554 -4.0635611 24.35247955 -4.07014465 23.59028625 C-4.19579971 19.14441138 -4.8173976 16.22605268 -7.5625 12.6875 C-10.76667721 11.0854114 -14.08589432 11.19464785 -17.5625 11.6875 C-21.00562714 13.8119827 -22.27867547 14.83602641 -23.5625 18.6875 C-23.71572359 21.27080229 -23.81956889 23.83242239 -23.87890625 26.41796875 C-23.89968735 27.16838943 -23.92046844 27.91881012 -23.94187927 28.69197083 C-24.00719926 31.08622184 -24.06617792 33.48058139 -24.125 35.875 C-24.16820193 37.49936013 -24.21181676 39.12370933 -24.25585938 40.74804688 C-24.36286263 44.72775371 -24.46417937 48.70756958 -24.5625 52.6875 C-28.8525 52.6875 -33.1425 52.6875 -37.5625 52.6875 C-37.5625 35.1975 -37.5625 17.7075 -37.5625 -0.3125 C-33.6025 -0.3125 -29.6425 -0.3125 -25.5625 -0.3125 C-25.2325 1.0075 -24.9025 2.3275 -24.5625 3.6875 C-23.634375 3.048125 -22.70625 2.40875 -21.75 1.75 C-15.25455952 -2.45293207 -7.20917943 -2.65601347 0 0 Z " fill="#FFFFFF" transform="translate(329.5625,64.3125)"/>
<path d="M0 0 C6.5685603 4.59217933 11.44870411 10.34611234 14 18 C12.77493102 18.65357278 11.54470484 19.29748233 10.3125 19.9375 C9.62800781 20.29714844 8.94351563 20.65679687 8.23828125 21.02734375 C5.83687613 22.07088629 3.57647241 22.57133997 1 23 C0.63648438 22.39671875 0.27296875 21.7934375 -0.1015625 21.171875 C-3.67857636 15.48534015 -6.53898189 11.72684572 -12.9375 9.25 C-19.27023658 8.48239557 -24.36214228 9.03270646 -30 12 C-35.4662327 16.49445799 -38.4083228 22.01439208 -39.23828125 29.0078125 C-39.47592543 35.78692532 -38.07904431 42.3895042 -33.57421875 47.671875 C-28.12508469 52.45922792 -22.81210094 53.46394018 -15.7890625 53.3125 C-11.57987852 52.84088275 -8.35583515 51.58629376 -5 49 C-2.45059395 45.77969763 -0.83930026 42.67860053 1 39 C5.29 40.65 9.58 42.3 14 44 C11.75541717 51.71575349 7.69432762 57.77662223 0.98046875 62.38671875 C-0.98397761 63.42899897 -2.90564065 64.25524746 -5 65 C-5.62519531 65.22300781 -6.25039063 65.44601563 -6.89453125 65.67578125 C-16.88013472 68.66536111 -27.16565346 67.5013401 -36.37890625 62.78125 C-43.90709584 58.19555076 -50.14106076 51.3998148 -52.5625 42.7734375 C-54.41468951 31.03187901 -54.11775645 19.24407481 -47.08203125 9.28515625 C-35.94739857 -4.13552492 -15.53912012 -9.4573819 0 0 Z " fill="#FFFFFF" transform="translate(493,51)"/>
<path d="M0 0 C2.64212862 2.40409901 4.34152219 5.01510196 6.1875 8.0625 C12.46819288 18.06410756 19.97018416 28.18930945 30 34.6875 C33 37 33 37 33.4375 39.8125 C33.293125 40.534375 33.14875 41.25625 33 42 C34.32 42 35.64 42 37 42 C37 43.65 37 45.3 37 47 C38.98 47 40.96 47 43 47 C43.33 45.68 43.66 44.36 44 43 C46.25115271 43.78850536 48.50090104 44.58067537 50.75 45.375 C51.70132813 45.70757812 51.70132813 45.70757812 52.671875 46.046875 C57.65709459 47.81247361 57.65709459 47.81247361 60 49.09375 C62.99428189 50.45053398 66.00227536 50.70399866 69.25 51.125 C70.51328125 51.29257813 71.7765625 51.46015625 73.078125 51.6328125 C74.52445313 51.81457031 74.52445313 51.81457031 76 52 C69.41215784 60.32148484 61.68816229 66.31628696 52.4375 71.4375 C51.83687744 71.77966553 51.23625488 72.12183105 50.61743164 72.47436523 C45.93918998 74.9552414 41.34167936 76.41436774 36 76 C32.73359002 74.9026715 29.89155196 73.32043276 26.9375 71.5625 C26.16728516 71.12873047 25.39707031 70.69496094 24.60351562 70.24804688 C22.72402272 69.1857248 20.86025999 68.09565256 19 67 C19 66.34 19 65.68 19 65 C20.35931641 64.94392578 20.35931641 64.94392578 21.74609375 64.88671875 C32.83712945 64.28815492 42.5048139 63.08926028 50.3125 54.4375 C52.14375 52.03541667 52.14375 52.03541667 53 49 C51.96875 49.433125 50.9375 49.86625 49.875 50.3125 C49.22789063 50.58320312 48.58078125 50.85390625 47.9140625 51.1328125 C45.80868433 52.0387454 45.80868433 52.0387454 43.25 53.6875 C38.52567484 55.59540055 34.03132392 55.24171841 29 55 C29 54.01 29 53.02 29 52 C29.99 51.34 30.98 50.68 32 50 C32 49.34 32 48.68 32 48 C27.26905168 48.51137315 27.26905168 48.51137315 22.79296875 50.0078125 C18.99637837 51.35653132 15.50185278 51.4447067 11.5 51.5 C10.75363281 51.54125 10.00726563 51.5825 9.23828125 51.625 C3.88923425 51.70073872 3.88923425 51.70073872 1.43017578 49.76293945 C-1.84685202 45.92528819 -4.0169042 41.59332445 -6 37 C-6.30164062 36.32195312 -6.60328125 35.64390625 -6.9140625 34.9453125 C-10.00975929 27.04694592 -10.59952753 17.98610702 -7.3125 10.0625 C-5.34697433 6.24416698 -2.90620857 3.14839261 0 0 Z " fill="#259CD1" transform="translate(39,44)"/>
<path d="M0 0 C3.1875 2.0625 3.1875 2.0625 4.1875 3.0625 C4.5175 1.4125 4.8475 -0.2375 5.1875 -1.9375 C9.1475 -1.9375 13.1075 -1.9375 17.1875 -1.9375 C17.1875 15.5525 17.1875 33.0425 17.1875 51.0625 C13.2275 51.0625 9.2675 51.0625 5.1875 51.0625 C4.8575 49.4125 4.5275 47.7625 4.1875 46.0625 C3.1665625 46.990625 3.1665625 46.990625 2.125 47.9375 C-3.54927278 52.04229307 -9.9775122 52.94335487 -16.8125 52.0625 C-24.94177445 49.98349719 -30.82573769 46.09656822 -35.12890625 38.84375 C-38.98166099 30.57442275 -39.25490502 21.38971505 -36.375 12.75 C-33.47516114 6.424017 -28.36448033 1.54734424 -21.953125 -1.1328125 C-14.86695685 -2.94842275 -6.66639555 -3.31511533 0 0 Z M-20.8125 13.0625 C-24.1414335 17.84330481 -25.65126423 22.1911504 -24.8125 28.0625 C-23.13748831 32.67732813 -21.25698274 36.62520301 -16.8125 39.0625 C-13.08650457 40.30449848 -9.68270783 40.59758555 -5.8125 40.0625 C-0.71040078 37.36705136 2.36131037 34.5410689 4.1875 29.0625 C4.7554716 23.32817139 4.40794433 19.00818237 1.1875 14.0625 C-1.59295506 10.84759884 -3.54273329 9.32622528 -7.86328125 8.82421875 C-13.36228368 8.64376789 -16.61519679 9.15803189 -20.8125 13.0625 Z " fill="#FFFFFF" transform="translate(548.8125,65.9375)"/>
<path d="M0 0 C38.8490566 0 38.8490566 0 46.4375 7.3125 C51.00941709 13.31949107 51.40408309 19.11698573 50.53515625 26.41796875 C49.22550926 32.73677648 44.96596895 36.35153302 40 40 C36.42652922 41.70855301 33.64620209 42.24147605 29.69921875 42.1953125 C28.37796997 42.18781982 28.37796997 42.18781982 27.0300293 42.18017578 C25.37547729 42.15286377 25.37547729 42.15286377 23.6875 42.125 C20.160625 42.08375 16.63375 42.0425 13 42 C13 50.91 13 59.82 13 69 C8.71 69 4.42 69 0 69 C0 46.23 0 23.46 0 0 Z M13 12 C13 18.27 13 24.54 13 31 C24.49811736 31.77788032 24.49811736 31.77788032 35 28 C36.87243424 25.63910466 36.99221556 24.06097809 37.375 21.0625 C36.90977662 17.2631757 35.63608379 15.71361566 33 13 C30.703463 11.8517315 29.41686833 11.88438825 26.8671875 11.90234375 C26.14128418 11.90484131 25.41538086 11.90733887 24.66748047 11.90991211 C23.74596191 11.91901611 22.82444336 11.92812012 21.875 11.9375 C17.481875 11.9684375 17.481875 11.9684375 13 12 Z " fill="#FFFFFF" transform="translate(176,48)"/>
<path d="M0 0 C6.80823726 3.96458877 9.94967513 8.86621163 12.625 16.17578125 C13.25390625 19.3125 13.25390625 19.3125 13.25390625 29.3125 C0.05390625 29.3125 -13.14609375 29.3125 -26.74609375 29.3125 C-22.75739074 37.24139318 -22.75739074 37.24139318 -17.74609375 39.3125 C-12.8605086 39.87314092 -8.28378807 39.98524127 -3.74609375 38 C-2.00002908 36.52675793 -0.36151692 34.92792317 1.25390625 33.3125 C4.55390625 35.2925 7.85390625 37.2725 11.25390625 39.3125 C8.30386947 45.21257357 4.21005655 48.83651667 -1.99609375 51.1875 C-11.38236954 53.86929308 -20.40345791 52.78775978 -28.90625 48.12890625 C-35.39151622 43.84984274 -38.7233366 38.0898525 -40.33984375 30.5390625 C-41.46747837 21.38984522 -40.03012424 13.96001583 -34.6640625 6.39453125 C-25.59250834 -3.45300107 -11.97630819 -5.53639929 0 0 Z M-24.12109375 12.1875 C-26.17488815 14.55037971 -26.17488815 14.55037971 -26.74609375 19.3125 C-17.83609375 19.3125 -8.92609375 19.3125 0.25390625 19.3125 C-2.4550458 12.32048603 -2.4550458 12.32048603 -7.74609375 8.3125 C-14.33192289 6.48310302 -18.81949747 8.00202925 -24.12109375 12.1875 Z " fill="#FFFFFF" transform="translate(646.74609375,65.6875)"/>
<path d="M0 0 C7.63610445 7.84821847 8.25 15.45726061 8.25 26.3125 C-4.95 26.3125 -18.15 26.3125 -31.75 26.3125 C-28.33845571 33.05958633 -28.33845571 33.05958633 -22.75 36.3125 C-17.29601547 37.11754293 -12.36835099 37.26447117 -7.5625 34.4375 C-5.7163289 32.44530798 -5.7163289 32.44530798 -4.75 30.3125 C-0.64041233 31.76294271 2.68258745 33.82360752 6.25 36.3125 C4.31708868 42.33622894 0.60879071 44.37094158 -4.75 47.3125 C-13.49247525 50.87424918 -22.61498782 50.15101781 -31.23828125 46.6328125 C-37.35300393 43.41854148 -41.56264982 38.44527111 -44.0859375 32.02734375 C-46.21552151 23.32110324 -45.97465293 14.27170116 -41.36328125 6.46484375 C-30.56709178 -7.93878917 -14.80074862 -9.08227756 0 0 Z M-26.75 7.3125 C-29.78179684 10.42408096 -30.68180519 12.03972075 -31.75 16.3125 C-22.84 16.3125 -13.93 16.3125 -4.75 16.3125 C-6.8026695 10.15449149 -7.56154438 8.73883861 -12.75 5.3125 C-18.33706305 3.68717257 -21.72017836 4.46543115 -26.75 7.3125 Z " fill="#FFFFFF" transform="translate(425.75,68.6875)"/>
<path d="M0 0 C0 3.96 0 7.92 0 12 C-2.21354167 12.61848958 -4.42708333 13.23697917 -6.640625 13.85546875 C-9.83409148 15.40461723 -11.06924875 17.01411712 -13 20 C-13.40989739 22.76974045 -13.60463888 25.15842912 -13.609375 27.92578125 C-13.62591125 28.67337204 -13.64244751 29.42096283 -13.65948486 30.19120789 C-13.70783923 32.56505652 -13.72930636 34.93826522 -13.75 37.3125 C-13.77817043 38.92776635 -13.80809937 40.54300306 -13.83984375 42.15820312 C-13.91359395 46.10541602 -13.96324457 50.05227631 -14 54 C-18.62 54 -23.24 54 -28 54 C-28 36.51 -28 19.02 -28 1 C-23.71 1 -19.42 1 -15 1 C-15 2.32 -15 3.64 -15 5 C-13.88625 4.360625 -12.7725 3.72125 -11.625 3.0625 C-7.05207179 0.43730047 -5.85611669 0 0 0 Z " fill="#FFFFFF" transform="translate(261,63)"/>
<path d="M0 0 C0 3.96 0 7.92 0 12 C-2.47395833 12.61848958 -4.94791667 13.23697917 -7.421875 13.85546875 C-10.8121566 15.36054831 -11.99456506 16.87602903 -14 20 C-14.40989739 22.76974045 -14.60463888 25.15842912 -14.609375 27.92578125 C-14.62591125 28.67337204 -14.64244751 29.42096283 -14.65948486 30.19120789 C-14.70783923 32.56505652 -14.72930636 34.93826522 -14.75 37.3125 C-14.77817043 38.92776635 -14.80809937 40.54300306 -14.83984375 42.15820312 C-14.91359395 46.10541602 -14.96324457 50.05227631 -15 54 C-19.29 54 -23.58 54 -28 54 C-28 36.51 -28 19.02 -28 1 C-24.04 1 -20.08 1 -16 1 C-15.67 2.32 -15.34 3.64 -15 5 C-14.071875 4.360625 -13.14375 3.72125 -12.1875 3.0625 C-7.47805063 0.01520923 -5.89140082 0 0 0 Z " fill="#FFFFFF" transform="translate(605,63)"/>
<path d="M0 0 C4.29 0 8.58 0 13 0 C13 17.49 13 34.98 13 53 C8.71 53 4.42 53 0 53 C0 35.51 0 18.02 0 0 Z " fill="#FFFFFF" transform="translate(268,64)"/>
<path d="M0 0 C2.375 1.5625 2.375 1.5625 4 4 C4.68746085 7.76172399 4.45046988 10.90197967 3 14.4375 C-0.04080321 16.8131275 -3.24630365 17.20488011 -7 17 C-9.99795835 15.66048669 -11.52779875 14.9444025 -13 12 C-13.58203713 4.78273959 -13.58203713 4.78273959 -11.1875 1.5625 C-7.23814633 -1.25846691 -4.58583056 -1.21664892 0 0 Z " fill="#FFFFFF" transform="translate(279,40)"/>
<path d="M0 0 C1.65 0 3.3 0 5 0 C5 1.32 5 2.64 5 4 C6.65 4 8.3 4 10 4 C10 5.65 10 7.3 10 9 C8.35 9 6.7 9 5 9 C5 10.65 5 12.3 5 14 C3.35 14 1.7 14 0 14 C0 12.35 0 10.7 0 9 C-1.32 9 -2.64 9 -4 9 C-4 7.35 -4 5.7 -4 4 C-2.68 4 -1.36 4 0 4 C0 2.68 0 1.36 0 0 Z " fill="#DAE5E9" transform="translate(76,77)"/>
<path d="M0 0 C3.3 0 6.6 0 10 0 C8.68 0.33 7.36 0.66 6 1 C6 1.66 6 2.32 6 3 C3.5625 2.625 3.5625 2.625 1 2 C0.67 1.34 0.34 0.68 0 0 Z " fill="#0A83C6" transform="translate(59,110)"/>
<path d="M0 0 C0.66 0.33 1.32 0.66 2 1 C2 1.66 2 2.32 2 3 C0.37373596 4.38232443 -1.2925002 5.71937515 -3 7 C-3.66 6.67 -4.32 6.34 -5 6 C-3.35 4.02 -1.7 2.04 0 0 Z " fill="#35A9D4" transform="translate(39,44)"/>
<path d="" fill="#C8CBD1" transform="translate(0,0)"/>
</svg>
